<?xml version="1.0" encoding="UTF-8" standalone="no"?>
<!-- Created with Inkscape (http://www.inkscape.org/) -->

<svg
   xmlns:dc="http://purl.org/dc/elements/1.1/"
   xmlns:cc="http://creativecommons.org/ns#"
   xmlns:rdf="http://www.w3.org/1999/02/22-rdf-syntax-ns#"
   xmlns:svg="http://www.w3.org/2000/svg"
   xmlns="http://www.w3.org/2000/svg"
   xmlns:xlink="http://www.w3.org/1999/xlink"
   xmlns:sodipodi="http://sodipodi.sourceforge.net/DTD/sodipodi-0.dtd"
   xmlns:inkscape="http://www.inkscape.org/namespaces/inkscape"
   width="99.946533mm"
   height="103.56289mm"
   viewBox="0 0 99.946535 103.5629"
   version="1.1"
   id="svg2636"
   sodipodi:docname="logo.svg"
   inkscape:version="0.92.3 (2405546, 2018-03-11)"
   inkscape:export-filename="/home/dr_b/Dropbox/WorkHome/nanodip/nanodip/static/img/logo.png"
   inkscape:export-xdpi="96"
   inkscape:export-ydpi="96">
  <defs
     id="defs2630">
    <linearGradient
       inkscape:collect="always"
       xlink:href="#linearGradient1449"
       id="linearGradient31616"
       gradientUnits="userSpaceOnUse"
       gradientTransform="matrix(0.90912107,-0.24382028,0,0.90912107,-264.18001,319.95624)"
       x1="363.80209"
       y1="40.354168"
       x2="388.9375"
       y2="12.572917" />
    <linearGradient
       id="linearGradient1449"
       inkscape:collect="always">
      <stop
         id="stop1445"
         offset="0"
         style="stop-color:#f9fa0b;stop-opacity:1" />
      <stop
         id="stop1447"
         offset="1"
         style="stop-color:#fc9901;stop-opacity:1" />
    </linearGradient>
    <linearGradient
       inkscape:collect="always"
       xlink:href="#linearGradient1449"
       id="linearGradient31618"
       gradientUnits="userSpaceOnUse"
       gradientTransform="matrix(0.90912108,-0.24382028,0,0.90912108,-264.18001,319.95625)"
       x1="415.39584"
       y1="40.354168"
       x2="440.53125"
       y2="12.572917" />
    <linearGradient
       inkscape:collect="always"
       xlink:href="#linearGradient1449"
       id="linearGradient31620"
       gradientUnits="userSpaceOnUse"
       gradientTransform="matrix(0.90912107,-0.24382028,0,0.90912107,-264.18001,319.95624)"
       x1="468.3125"
       y1="40.354168"
       x2="493.44791"
       y2="12.572917" />
    <linearGradient
       inkscape:collect="always"
       xlink:href="#linearGradient1449"
       id="linearGradient31622"
       gradientUnits="userSpaceOnUse"
       gradientTransform="matrix(0.90912108,-0.24382028,0,0.90912108,-248.78555,315.82756)"
       x1="415.39584"
       y1="40.354168"
       x2="440.53125"
       y2="12.572917" />
    <linearGradient
       inkscape:collect="always"
       xlink:href="#linearGradient1449"
       id="linearGradient31624"
       gradientUnits="userSpaceOnUse"
       gradientTransform="matrix(0.90912105,-0.24382027,0,0.90912105,-248.78555,315.82755)"
       x1="468.3125"
       y1="40.354168"
       x2="493.44791"
       y2="12.572917" />
    <linearGradient
       inkscape:collect="always"
       xlink:href="#linearGradient1449"
       id="linearGradient31626"
       gradientUnits="userSpaceOnUse"
       gradientTransform="matrix(0.90912107,-0.24382028,0,0.90912107,-248.78555,315.82755)"
       x1="363.80209"
       y1="40.354168"
       x2="388.9375"
       y2="12.572917" />
    <linearGradient
       inkscape:collect="always"
       xlink:href="#linearGradient1449"
       id="linearGradient31628"
       gradientUnits="userSpaceOnUse"
       gradientTransform="matrix(0.90912108,-0.24382028,0,0.90912108,-248.78555,315.82755)"
       x1="387.61459"
       y1="12.572917"
       x2="416.71875"
       y2="40.354168" />
    <linearGradient
       inkscape:collect="always"
       xlink:href="#linearGradient1449"
       id="linearGradient31630"
       gradientUnits="userSpaceOnUse"
       gradientTransform="matrix(0.90912108,-0.24382028,0,0.90912108,-248.78555,315.82755)"
       x1="441.85416"
       y1="12.572917"
       x2="469.63541"
       y2="40.354168" />
    <linearGradient
       inkscape:collect="always"
       xlink:href="#linearGradient1449"
       id="linearGradient31634"
       gradientUnits="userSpaceOnUse"
       gradientTransform="matrix(0.90912108,-0.24382028,0,0.90912108,-264.18001,319.95624)"
       x1="387.61459"
       y1="12.572917"
       x2="416.71875"
       y2="40.354168" />
    <linearGradient
       inkscape:collect="always"
       xlink:href="#linearGradient1449"
       id="linearGradient31638"
       gradientUnits="userSpaceOnUse"
       gradientTransform="matrix(0.90912108,-0.24382028,0,0.90912108,-264.18001,319.95624)"
       x1="441.85416"
       y1="12.572917"
       x2="469.63541"
       y2="40.354168" />
  </defs>
  <sodipodi:namedview
     id="base"
     pagecolor="#ffffff"
     bordercolor="#666666"
     borderopacity="1.0"
     inkscape:pageopacity="0.0"
     inkscape:pageshadow="2"
     inkscape:zoom="0.73129393"
     inkscape:cx="-33.709604"
     inkscape:cy="-93.271959"
     inkscape:document-units="mm"
     inkscape:current-layer="layer1"
     showgrid="false"
     inkscape:window-width="1920"
     inkscape:window-height="1025"
     inkscape:window-x="0"
     inkscape:window-y="30"
     inkscape:window-maximized="1"
     fit-margin-top="0"
     fit-margin-left="0"
     fit-margin-right="0"
     fit-margin-bottom="0"
     units="px" />
  <metadata
     id="metadata2633">
    <rdf:RDF>
      <cc:Work
         rdf:about="">
        <dc:format>image/svg+xml</dc:format>
        <dc:type
           rdf:resource="http://purl.org/dc/dcmitype/StillImage" />
        <dc:title></dc:title>
      </cc:Work>
    </rdf:RDF>
  </metadata>
  <g
     inkscape:label="Layer 1"
     inkscape:groupmode="layer"
     id="layer1"
     transform="translate(-80.471632,-157.73803)">
    <g
       id="g1440"
       inkscape:export-xdpi="96"
       inkscape:export-ydpi="96">
      <path
         sodipodi:nodetypes="cccczcc"
         inkscape:connector-curvature="0"
         id="path9055"
         d="m 107.85776,207.51968 h 3.16899 v 0 l -0.33891,20.89804 c 0,0 -0.10464,3.17593 -1.24859,3.175 -1.14395,-9.3e-4 -1.24258,-3.175 -1.24258,-3.175 z"
         style="display:inline;fill:#daa864;fill-opacity:1;stroke:#000000;stroke-width:0.07;stroke-linecap:butt;stroke-linejoin:miter;stroke-miterlimit:4;stroke-dasharray:none;paint-order:fill markers stroke" />
      <path
         style="display:inline;fill:#daa864;fill-opacity:1;stroke:#000000;stroke-width:0.07;stroke-linecap:butt;stroke-linejoin:miter;stroke-miterlimit:4;stroke-dasharray:none;paint-order:fill markers stroke"
         d="m 119.29746,219.07994 h 3.16899 v 0 l -0.33891,20.89804 c 0,0 -0.10464,3.17593 -1.24859,3.175 -1.14395,-9.3e-4 -1.24258,-3.175 -1.24258,-3.175 z"
         id="path9060"
         inkscape:connector-curvature="0"
         sodipodi:nodetypes="cccczcc" />
      <path
         sodipodi:nodetypes="cccczcc"
         inkscape:connector-curvature="0"
         id="path9062"
         d="m 130.73717,201.42406 h 3.16899 v 0 l -0.33891,20.89804 c 0,0 -0.10464,3.17593 -1.24859,3.175 -1.14395,-9.3e-4 -1.24258,-3.175 -1.24258,-3.175 z"
         style="display:inline;fill:#daa864;fill-opacity:1;stroke:#000000;stroke-width:0.07;stroke-linecap:butt;stroke-linejoin:miter;stroke-miterlimit:4;stroke-dasharray:none;paint-order:fill markers stroke" />
      <path
         style="display:inline;fill:#daa864;fill-opacity:1;stroke:#000000;stroke-width:0.07;stroke-linecap:butt;stroke-linejoin:miter;stroke-miterlimit:4;stroke-dasharray:none;paint-order:fill markers stroke"
         d="m 142.17687,200.06954 h 3.16899 v 0 l -0.33891,20.89804 c 0,0 -0.10464,3.17593 -1.24859,3.175 -1.14395,-9.3e-4 -1.24258,-3.175 -1.24258,-3.175 z"
         id="path9064"
         inkscape:connector-curvature="0"
         sodipodi:nodetypes="cccczcc" />
      <path
         sodipodi:nodetypes="cccczcc"
         inkscape:connector-curvature="0"
         id="path9066"
         d="m 153.61659,194.87676 h 3.16899 v 0 l -0.33891,20.89804 c 0,0 -0.10464,3.17593 -1.24859,3.175 -1.14395,-9.3e-4 -1.24258,-3.175 -1.24258,-3.175 z"
         style="display:inline;fill:#daa864;fill-opacity:1;stroke:#000000;stroke-width:0.07;stroke-linecap:butt;stroke-linejoin:miter;stroke-miterlimit:4;stroke-dasharray:none;paint-order:fill markers stroke" />
      <path
         style="display:inline;fill:#daa864;fill-opacity:1;stroke:#000000;stroke-width:0.07;stroke-linecap:butt;stroke-linejoin:miter;stroke-miterlimit:4;stroke-dasharray:none;paint-order:fill markers stroke"
         d="m 165.05631,204.3475 h 3.16899 v 0 l -0.33891,20.89804 c 0,0 -0.10464,3.17593 -1.24859,3.175 -1.14395,-9.3e-4 -1.24258,-3.175 -1.24258,-3.175 z"
         id="path9068"
         inkscape:connector-curvature="0"
         sodipodi:nodetypes="cccczcc" />
      <path
         style="display:inline;fill:#ff776f;fill-opacity:1;stroke:#000000;stroke-width:0.03;stroke-linecap:butt;stroke-linejoin:round;stroke-miterlimit:4;stroke-dasharray:none;stroke-opacity:1"
         d="m 99.38434,185.21789 v 1.5875 l 5.37192,8.47808 1.5522,-0.80199 -6.92412,-9.26359"
         id="path29174"
         inkscape:connector-curvature="0"
         sodipodi:nodetypes="ccccc" />
      <path
         inkscape:connector-curvature="0"
         id="path29181"
         d="m 110.82521,182.1523 v 1.5875 l -5.78885,1.65735 -0.75914,-1.64634 z"
         style="display:inline;fill:#ff0000;fill-opacity:1;stroke:#000000;stroke-width:0.03;stroke-linecap:butt;stroke-linejoin:miter;stroke-miterlimit:4;stroke-dasharray:none;stroke-opacity:1" />
      <path
         sodipodi:nodetypes="ccccc"
         inkscape:connector-curvature="0"
         id="path29183"
         d="m 110.82521,182.1523 v 1.5875 l 5.37192,8.47808 1.5522,-0.80199 -6.92412,-9.26359"
         style="display:inline;fill:#ff776f;fill-opacity:1;stroke:#000000;stroke-width:0.03;stroke-linecap:butt;stroke-linejoin:round;stroke-miterlimit:4;stroke-dasharray:none;stroke-opacity:1" />
      <path
         style="display:inline;fill:#ff0000;fill-opacity:1;stroke:#000000;stroke-width:0.03;stroke-linecap:butt;stroke-linejoin:miter;stroke-miterlimit:4;stroke-dasharray:none;stroke-opacity:1"
         d="m 122.26605,179.08672 v 1.5875 l -5.78885,1.65735 -0.75914,-1.64634 z"
         id="path29185"
         inkscape:connector-curvature="0" />
      <path
         style="display:inline;fill:#ff776f;fill-opacity:1;stroke:#000000;stroke-width:0.03;stroke-linecap:butt;stroke-linejoin:round;stroke-miterlimit:4;stroke-dasharray:none;stroke-opacity:1"
         d="m 122.26605,179.08672 v 1.5875 l 5.37192,8.47808 1.5522,-0.80199 -6.92412,-9.26359"
         id="path29187"
         inkscape:connector-curvature="0"
         sodipodi:nodetypes="ccccc" />
      <path
         inkscape:connector-curvature="0"
         id="path29189"
         d="m 133.7069,176.02113 v 1.5875 l -5.78885,1.65735 -0.75914,-1.64634 z"
         style="display:inline;fill:#ff0000;fill-opacity:1;stroke:#000000;stroke-width:0.03;stroke-linecap:butt;stroke-linejoin:miter;stroke-miterlimit:4;stroke-dasharray:none;stroke-opacity:1" />
      <path
         sodipodi:nodetypes="ccccc"
         inkscape:connector-curvature="0"
         id="path29191"
         d="m 133.7069,176.02113 v 1.5875 l 5.37192,8.47808 1.5522,-0.80199 -6.92412,-9.26359"
         style="display:inline;fill:#ff776f;fill-opacity:1;stroke:#000000;stroke-width:0.03;stroke-linecap:butt;stroke-linejoin:round;stroke-miterlimit:4;stroke-dasharray:none;stroke-opacity:1" />
      <path
         style="display:inline;fill:#ff0000;fill-opacity:1;stroke:#000000;stroke-width:0.03;stroke-linecap:butt;stroke-linejoin:miter;stroke-miterlimit:4;stroke-dasharray:none;stroke-opacity:1"
         d="m 145.14775,172.95555 v 1.5875 l -5.78885,1.65735 -0.75914,-1.64634 z"
         id="path29193"
         inkscape:connector-curvature="0" />
      <path
         inkscape:connector-curvature="0"
         id="rect25529"
         d="m 100.38126,227.85474 c 0,0 75.40248,-20.20415 75.40248,-20.20415 0,0 0,-19.63008 0,-19.63008 0,0 -75.40248,20.20416 -75.40248,20.20416 0,0 0,19.63007 0,19.63007"
         style="display:inline;opacity:1;fill:#ff0000;fill-opacity:1;fill-rule:nonzero;stroke:#000000;stroke-width:0.1;stroke-linecap:round;stroke-linejoin:round;stroke-miterlimit:4;stroke-dasharray:none;stroke-opacity:1;paint-order:stroke fill markers" />
      <path
         style="display:inline;fill:#ff0000;fill-opacity:1;stroke:#000000;stroke-width:0.03;stroke-linecap:butt;stroke-linejoin:miter;stroke-miterlimit:4;stroke-dasharray:none;stroke-opacity:1"
         d="m 99.38434,185.21789 v 1.5875 l -5.78885,1.65735 -0.75914,-1.64634 z"
         id="path29179"
         inkscape:connector-curvature="0" />
      <path
         style="display:inline;fill:#ff776f;fill-opacity:1;stroke:#000000;stroke-width:0.03;stroke-linecap:butt;stroke-linejoin:round;stroke-miterlimit:4;stroke-dasharray:none;stroke-opacity:1"
         d="m 145.14775,172.95555 v 1.5875 l 5.37192,8.47808 1.5522,-0.80199 -6.92412,-9.26359"
         id="path29195"
         inkscape:connector-curvature="0"
         sodipodi:nodetypes="ccccc" />
      <g
         style="display:inline;stroke:#000000;stroke-width:0.1;stroke-linejoin:round;stroke-miterlimit:4;stroke-dasharray:none"
         id="g29118"
         transform="translate(5.006,102.14926)">
        <path
           id="path29106"
           d="m 88.000822,86.365002 c 0,0 6.377534,-1.708866 6.377534,-1.708866 0,0 6.144854,9.354699 6.144854,9.354699 0,0 -6.377531,1.708865 -6.377531,1.708865 0,0 -6.144857,-9.354698 -6.144857,-9.354698"
           style="opacity:1;fill:#e6e6e6;fill-opacity:1;fill-rule:nonzero;stroke:#000000;stroke-width:0.1;stroke-linecap:round;stroke-linejoin:round;stroke-miterlimit:4;stroke-dasharray:none;stroke-opacity:1;paint-order:stroke fill markers"
           inkscape:connector-curvature="0" />
        <path
           id="path29108"
           d="m 145.20506,71.037082 c 0,0 6.37753,-1.708865 6.37753,-1.708865 0,0 6.14485,9.354698 6.14485,9.354698 0,0 -6.37753,1.708865 -6.37753,1.708865 0,0 -6.14485,-9.354698 -6.14485,-9.354698"
           style="opacity:1;fill:#e6e6e6;fill-opacity:1;fill-rule:nonzero;stroke:#000000;stroke-width:0.1;stroke-linecap:round;stroke-linejoin:round;stroke-miterlimit:4;stroke-dasharray:none;stroke-opacity:1;paint-order:stroke fill markers"
           inkscape:connector-curvature="0" />
        <path
           id="path29110"
           d="m 133.76421,74.102665 c 0,0 6.37754,-1.708865 6.37754,-1.708865 0,0 6.14485,9.354698 6.14485,9.354698 0,0 -6.37753,1.708865 -6.37753,1.708865 0,0 -6.14486,-9.354698 -6.14486,-9.354698"
           style="opacity:1;fill:#e6e6e6;fill-opacity:1;fill-rule:nonzero;stroke:#000000;stroke-width:0.1;stroke-linecap:round;stroke-linejoin:round;stroke-miterlimit:4;stroke-dasharray:none;stroke-opacity:1;paint-order:stroke fill markers"
           inkscape:connector-curvature="0" />
        <path
           id="path29112"
           d="m 122.32337,77.168249 c 0,0 6.37753,-1.708866 6.37753,-1.708866 0,0 6.14486,9.354698 6.14486,9.354698 0,0 -6.37754,1.708866 -6.37754,1.708866 0,0 -6.14485,-9.354698 -6.14485,-9.354698"
           style="opacity:1;fill:#e6e6e6;fill-opacity:1;fill-rule:nonzero;stroke:#000000;stroke-width:0.1;stroke-linecap:round;stroke-linejoin:round;stroke-miterlimit:4;stroke-dasharray:none;stroke-opacity:1;paint-order:stroke fill markers"
           inkscape:connector-curvature="0" />
        <path
           id="path29114"
           d="m 110.88252,80.233833 c 0,0 6.37753,-1.708865 6.37753,-1.708865 0,0 6.14486,9.354698 6.14486,9.354698 0,0 -6.37754,1.708865 -6.37754,1.708865 0,0 -6.14485,-9.354698 -6.14485,-9.354698"
           style="opacity:1;fill:#e6e6e6;fill-opacity:1;fill-rule:nonzero;stroke:#000000;stroke-width:0.1;stroke-linecap:round;stroke-linejoin:round;stroke-miterlimit:4;stroke-dasharray:none;stroke-opacity:1;paint-order:stroke fill markers"
           inkscape:connector-curvature="0" />
        <path
           id="path29116"
           d="m 99.441672,83.299417 c 0,0 6.377538,-1.708866 6.377538,-1.708866 0,0 6.14485,9.354699 6.14485,9.354699 0,0 -6.37753,1.708865 -6.37753,1.708865 0,0 -6.144858,-9.354698 -6.144858,-9.354698"
           style="opacity:1;fill:#e6e6e6;fill-opacity:1;fill-rule:nonzero;stroke:#000000;stroke-width:0.1;stroke-linecap:round;stroke-linejoin:round;stroke-miterlimit:4;stroke-dasharray:none;stroke-opacity:1;paint-order:stroke fill markers"
           inkscape:connector-curvature="0" />
      </g>
      <path
         inkscape:connector-curvature="0"
         id="path29197"
         d="m 156.58859,169.88997 v 1.5875 l -5.78885,1.65735 -0.75914,-1.64634 z"
         style="display:inline;fill:#ff0000;fill-opacity:1;stroke:#000000;stroke-width:0.03;stroke-linecap:butt;stroke-linejoin:miter;stroke-miterlimit:4;stroke-dasharray:none;stroke-opacity:1" />
      <path
         sodipodi:nodetypes="ccccc"
         inkscape:connector-curvature="0"
         id="path29199"
         d="m 156.58859,169.88997 v 1.5875 l 5.37192,8.47808 1.5522,-0.80199 -6.92412,-9.26359"
         style="display:inline;fill:#ff776f;fill-opacity:1;stroke:#000000;stroke-width:0.03;stroke-linecap:butt;stroke-linejoin:round;stroke-miterlimit:4;stroke-dasharray:none;stroke-opacity:1" />
      <path
         inkscape:connector-curvature="0"
         id="path31642"
         d="m 89.51353,187.89616 -2.13217,0.53795 v 14.14229 l 2.13217,-0.53795 z"
         style="display:inline;opacity:1;fill:#ff0000;fill-opacity:1;fill-rule:nonzero;stroke:#000000;stroke-width:0.07425312;stroke-linecap:round;stroke-linejoin:round;stroke-miterlimit:4;stroke-dasharray:none;stroke-opacity:1;paint-order:stroke fill markers" />
      <path
         inkscape:connector-curvature="0"
         id="path9043"
         d="m 89.51353,202.03845 -3.93155,1.05317 9.89293,15.06006 3.93105,-1.05317 z"
         style="display:inline;fill:#ff2f01;fill-opacity:1;fill-rule:nonzero;stroke:#000000;stroke-width:0.07;stroke-linecap:round;stroke-linejoin:round;stroke-miterlimit:4;stroke-dasharray:none;stroke-opacity:1;paint-order:stroke fill markers" />
      <path
         style="opacity:1;fill:#000000;fill-opacity:1;fill-rule:nonzero;stroke:#000000;stroke-width:0.1;stroke-linecap:round;stroke-linejoin:round;stroke-miterlimit:4;stroke-dasharray:none;stroke-opacity:1;paint-order:stroke fill markers"
         d="m 89.205447,182.41652 v 14.17433 5.45548 l 6.852811,10.43244 v -19.62981 z"
         id="path1319"
         inkscape:connector-curvature="0" />
      <path
         inkscape:connector-curvature="0"
         id="path1314"
         d="m 89.205447,177.56351 v 14.17433 5.45548 l 6.852811,10.43244 v -19.62981 z"
         style="opacity:1;fill:#ff776f;fill-opacity:1;fill-rule:nonzero;stroke:#000000;stroke-width:0.1;stroke-linecap:round;stroke-linejoin:round;stroke-miterlimit:4;stroke-dasharray:none;stroke-opacity:1;paint-order:stroke fill markers" />
      <g
         style="display:inline;stroke:#000000;stroke-width:0.1;stroke-linejoin:round;stroke-miterlimit:4;stroke-dasharray:none"
         id="g29134"
         transform="translate(5.0019,100.55552)">
        <path
           inkscape:connector-curvature="0"
           d="m 99.441672,83.299417 c 0,0 6.377538,-1.708866 6.377538,-1.708866 0,0 6.14485,9.354699 6.14485,9.354699 0,0 -6.37753,1.708865 -6.37753,1.708865 0,0 -6.144858,-9.354698 -6.144858,-9.354698 m 11.440848,-3.065584 c 0,0 6.37753,-1.708865 6.37753,-1.708865 0,0 6.14486,9.354698 6.14486,9.354698 0,0 -6.37754,1.708865 -6.37754,1.708865 0,0 -6.14485,-9.354698 -6.14485,-9.354698 m 11.44085,-3.065584 c 0,0 6.37753,-1.708866 6.37753,-1.708866 0,0 6.14486,9.354698 6.14486,9.354698 0,0 -6.37754,1.708866 -6.37754,1.708866 0,0 -6.14485,-9.354698 -6.14485,-9.354698 m 11.44084,-3.065584 c 0,0 6.37754,-1.708865 6.37754,-1.708865 0,0 6.14485,9.354698 6.14485,9.354698 0,0 -6.37753,1.708865 -6.37753,1.708865 0,0 -6.14486,-9.354698 -6.14486,-9.354698 m 11.44085,-3.065583 c 0,0 6.37753,-1.708865 6.37753,-1.708865 0,0 6.14485,9.354698 6.14485,9.354698 0,0 -6.37753,1.708865 -6.37753,1.708865 0,0 -6.14485,-9.354698 -6.14485,-9.354698 m -57.204238,15.32792 c 0,0 6.377534,-1.708866 6.377534,-1.708866 0,0 6.144854,9.354699 6.144854,9.354699 0,0 -6.377531,1.708865 -6.377531,1.708865 0,0 -6.144857,-9.354698 -6.144857,-9.354698 M 75.52042,77.43665 c 0,0 6.85494,10.43571 6.85494,10.43571 0,0 1.8145,-0.4862 1.8145,-0.4862 0,0 6.14495,9.35484 6.14495,9.35484 0,0 -1.8145,0.48619 -1.8145,0.48619 0,0 6.85494,10.4357 6.85494,10.4357 0,0 75.40241,-20.20414 75.40241,-20.20414 0,0 -19.85481,-30.22624 -19.85481,-30.22624 0,0 -75.40243,20.20414 -75.40243,20.20414"
           style="opacity:1;fill:#ff2f01;fill-opacity:1;fill-rule:nonzero;stroke:#000000;stroke-width:0.1;stroke-linecap:round;stroke-linejoin:round;stroke-miterlimit:4;stroke-dasharray:none;stroke-opacity:1;paint-order:stroke fill markers"
           id="path29132" />
      </g>
      <g
         id="g9114"
         transform="matrix(0.82938035,-3.9140585e-5,3.8040143e-5,0.80635322,-186.35987,-110.57555)"
         style="display:inline">
        <path
           id="path9108"
           style="fill:#ffffff;fill-opacity:1;fill-rule:nonzero;stroke:#000000;stroke-width:0.10776404;stroke-linecap:round;stroke-linejoin:bevel;stroke-miterlimit:4;stroke-dasharray:none;stroke-opacity:1;paint-order:stroke fill markers"
           d="m 355.40777,369.91026 2.64047,4.07502 6.29418,-1.70972 -2.64046,-4.07502 z"
           inkscape:connector-curvature="0" />
        <path
           id="path9110"
           style="fill:#ffffff;fill-opacity:1;fill-rule:nonzero;stroke:#000000;stroke-width:0.10776404;stroke-linecap:round;stroke-linejoin:bevel;stroke-miterlimit:4;stroke-dasharray:none;stroke-opacity:1;paint-order:stroke fill markers"
           d="m 358.04824,373.98528 v 2.63664 l 6.29418,-1.70972 v -2.63664 z"
           inkscape:connector-curvature="0" />
        <path
           id="path9112"
           style="fill:#ffffff;fill-opacity:1;fill-rule:nonzero;stroke:#000000;stroke-width:0.10776404;stroke-linecap:round;stroke-linejoin:bevel;stroke-miterlimit:4;stroke-dasharray:none;stroke-opacity:1;paint-order:stroke fill markers"
           d="m 355.40777,369.91026 2.64047,4.07502 v 2.63664 l -2.64047,-4.07502 z"
           inkscape:connector-curvature="0" />
      </g>
      <g
         transform="matrix(0.82937109,0.00392206,-0.00381318,0.80634419,-199.3956,-113.58517)"
         id="g9106"
         style="display:inline">
        <path
           inkscape:connector-curvature="0"
           d="m 355.40777,369.91026 2.64047,4.07502 6.29418,-1.70972 -2.64046,-4.07502 z"
           style="fill:#ffffff;fill-opacity:1;fill-rule:nonzero;stroke:#000000;stroke-width:0.10776404;stroke-linecap:round;stroke-linejoin:bevel;stroke-miterlimit:4;stroke-dasharray:none;stroke-opacity:1;paint-order:stroke fill markers"
           id="path9076" />
        <path
           inkscape:connector-curvature="0"
           d="m 358.04824,373.98528 v 2.63664 l 6.29418,-1.70972 v -2.63664 z"
           style="fill:#ffffff;fill-opacity:1;fill-rule:nonzero;stroke:#000000;stroke-width:0.10776404;stroke-linecap:round;stroke-linejoin:bevel;stroke-miterlimit:4;stroke-dasharray:none;stroke-opacity:1;paint-order:stroke fill markers"
           id="path9078" />
        <path
           inkscape:connector-curvature="0"
           d="m 355.40777,369.91026 2.64047,4.07502 v 2.63664 l -2.64047,-4.07502 z"
           style="fill:#ffffff;fill-opacity:1;fill-rule:nonzero;stroke:#000000;stroke-width:0.10776404;stroke-linecap:round;stroke-linejoin:bevel;stroke-miterlimit:4;stroke-dasharray:none;stroke-opacity:1;paint-order:stroke fill markers"
           id="path9080" />
      </g>
      <g
         aria-label="ON"
         style="font-style:normal;font-weight:normal;font-size:10.58333302px;line-height:1.25;font-family:sans-serif;letter-spacing:0px;word-spacing:0px;white-space:pre;shape-inside:url(#rect73725);display:inline;fill:#ffffe5;fill-opacity:1;stroke:#000000;stroke-width:0.05;stroke-linejoin:round;stroke-miterlimit:4;stroke-dasharray:none"
         id="g29058"
         transform="translate(-256.06717,-185.68215)">
        <path
           inkscape:connector-curvature="0"
           d="m 351.04434,362.8541 c -0.66333,0.17774 -1.05431,0.52718 -1.17294,1.04832 -0.11562,0.52032 0.0624,1.13951 0.53407,1.85755 0.46999,0.7155 1.03613,1.2292 1.69841,1.54109 0.6653,0.31108 1.32961,0.37776 1.99294,0.20002 0.66332,-0.17774 1.05128,-0.52637 1.16389,-1.0459 0.11561,-0.52032 -0.0616,-1.13824 -0.53158,-1.85374 -0.47166,-0.71804 -1.03863,-1.23301 -1.7009,-1.5449 -0.65927,-0.3127 -1.32057,-0.38018 -1.98389,-0.20244 0,0 0,0 0,0 m -0.41,-0.62416 c 0.94675,-0.25368 1.87937,-0.18879 2.79787,0.19469 0.91684,0.38094 1.67026,1.0205 2.26025,1.91868 0.58833,0.89565 0.77491,1.6871 0.55973,2.37435 -0.21684,0.6847 -0.79863,1.1539 -1.74538,1.40758 -0.94976,0.25449 -1.88457,0.19167 -2.80442,-0.18846 -0.91684,-0.38094 -1.67026,-1.0205 -2.26026,-1.91869 -0.58999,-0.89818 -0.77656,-1.68963 -0.55972,-2.37434 0.21819,-0.68805 0.80217,-1.15932 1.75193,-1.41381 0,0 0,0 0,0"
           style="fill:#ffffe5;fill-opacity:1;stroke:#000000;stroke-width:0.05;stroke-linejoin:round;stroke-miterlimit:4;stroke-dasharray:none"
           id="path29054" />
        <path
           inkscape:connector-curvature="0"
           d="m 355.25165,361.11358 c 0,0 1.23016,-0.32963 1.23016,-0.32963 0,0 6.11648,3.95129 6.11648,3.95129 0,0 -3.12247,-4.75353 -3.12247,-4.75353 0,0 0.88644,-0.23753 0.88644,-0.23753 0,0 3.73247,5.68217 3.73247,5.68217 0,0 -1.23017,0.32963 -1.23017,0.32963 0,0 -6.11648,-3.9513 -6.11648,-3.9513 0,0 3.12248,4.75354 3.12248,4.75354 0,0 -0.88644,0.23752 -0.88644,0.23752 0,0 -3.73247,-5.68216 -3.73247,-5.68216"
           style="fill:#ffffe5;fill-opacity:1;stroke:#000000;stroke-width:0.05;stroke-linejoin:round;stroke-miterlimit:4;stroke-dasharray:none"
           id="path29056" />
      </g>
      <g
         aria-label="DIP"
         style="font-style:normal;font-weight:normal;font-size:10.58333302px;line-height:1.25;font-family:sans-serif;letter-spacing:0px;word-spacing:0px;white-space:pre;shape-inside:url(#rect134419);display:inline;fill:#ffffe5;fill-opacity:1;stroke:#000000;stroke-width:0.05;stroke-linejoin:round;stroke-miterlimit:4;stroke-dasharray:none"
         id="g29066"
         transform="translate(-256.06717,-185.68215)">
        <path
           inkscape:connector-curvature="0"
           d="m 391.83838,352.05759 c 0,0 2.90248,4.41863 2.90248,4.41863 0,0 1.10352,-0.29569 1.10352,-0.29569 0.93167,-0.24964 1.49642,-0.60984 1.69426,-1.08058 0.20084,-0.47156 0.0496,-1.09046 -0.45373,-1.85671 -0.49999,-0.76117 -1.08291,-1.25993 -1.74875,-1.49627 -0.6645,-0.23969 -1.46258,-0.23471 -2.39425,0.0149 0,0 -1.10353,0.29569 -1.10353,0.29569 m -1.32858,-0.38697 c 0,0 1.87692,-0.50292 1.87692,-0.50292 1.30855,-0.35063 2.4197,-0.37832 3.33343,-0.0831 0.91206,0.2927 1.6881,0.9262 2.32809,1.90051 0.64333,0.97938 0.80828,1.78109 0.49486,2.40514 -0.31342,0.62406 -1.12139,1.1106 -2.42392,1.45961 0,0 -1.87691,0.50292 -1.87691,0.50292 0,0 -3.73247,-5.68217 -3.73247,-5.68217"
           style="fill:#ffffe5;fill-opacity:1;stroke:#000000;stroke-width:0.05;stroke-linejoin:round;stroke-miterlimit:4;stroke-dasharray:none"
           id="path29060" />
        <path
           inkscape:connector-curvature="0"
           d="m 397.63754,349.76074 c 0,0 0.91357,-0.24479 0.91357,-0.24479 0,0 3.73247,5.68217 3.73247,5.68217 0,0 -0.91358,0.24479 -0.91358,0.24479 0,0 -3.73246,-5.68217 -3.73246,-5.68217"
           style="fill:#ffffe5;fill-opacity:1;stroke:#000000;stroke-width:0.05;stroke-linejoin:round;stroke-miterlimit:4;stroke-dasharray:none"
           id="path29062" />
        <path
           inkscape:connector-curvature="0"
           d="m 401.6978,349.41576 c 0,0 1.40249,2.13509 1.40249,2.13509 0,0 1.14875,-0.30781 1.14875,-0.30781 0.42514,-0.11391 0.69295,-0.29458 0.80345,-0.54201 0.1105,-0.24743 0.0532,-0.5424 -0.17176,-0.88494 -0.22333,-0.33999 -0.5119,-0.57149 -0.86573,-0.6945 -0.35383,-0.12301 -0.74331,-0.12756 -1.16844,-0.0136 0,0 -1.14876,0.30781 -1.14876,0.30781 m -1.32858,-0.38698 c 0,0 2.06234,-0.5526 2.06234,-0.5526 0.7568,-0.20279 1.42316,-0.21126 1.9991,-0.0254 0.57727,0.18249 1.04841,0.55156 1.4134,1.10722 0.36833,0.56073 0.45219,1.03656 0.25158,1.42749 -0.1976,0.39012 -0.6748,0.68657 -1.4316,0.88936 0,0 -1.14876,0.30781 -1.14876,0.30781 0,0 1.49999,2.28353 1.49999,2.28353 0,0 -0.91358,0.24479 -0.91358,0.24479 0,0 -3.73247,-5.68217 -3.73247,-5.68217"
           style="fill:#ffffe5;fill-opacity:1;stroke:#000000;stroke-width:0.05;stroke-linejoin:round;stroke-miterlimit:4;stroke-dasharray:none"
           id="path29064" />
      </g>
      <g
         aria-label="1"
         style="font-style:normal;font-weight:normal;font-size:10.58333302px;line-height:1.25;font-family:sans-serif;letter-spacing:0px;word-spacing:0px;white-space:pre;shape-inside:url(#rect100867);display:inline;fill:#ffffe5;fill-opacity:1;stroke:#000000;stroke-width:0.05;stroke-linejoin:round;stroke-miterlimit:4;stroke-dasharray:none"
         id="g29070"
         transform="translate(-256.06717,-185.68215)">
        <path
           inkscape:connector-curvature="0"
           d="m 361.48006,388.34314 c 0,0 1.49249,-0.39992 1.49249,-0.39992 0,0 -2.84748,-4.33488 -2.84748,-4.33488 0,0 -1.44364,0.70908 -1.44364,0.70908 0,0 -0.46,-0.70029 -0.46,-0.70029 0,0 1.4346,-0.70665 1.4346,-0.70665 0,0 0.91357,-0.24479 0.91357,-0.24479 0,0 3.30747,5.03516 3.30747,5.03516 0,0 1.49249,-0.39991 1.49249,-0.39991 0,0 0.425,0.647 0.425,0.647 0,0 -3.88951,1.0422 -3.88951,1.0422 0,0 -0.42499,-0.647 -0.42499,-0.647"
           style="fill:#ffffe5;fill-opacity:1;stroke:#000000;stroke-width:0.05;stroke-linejoin:round;stroke-miterlimit:4;stroke-dasharray:none"
           id="path29068" />
      </g>
      <g
         aria-label="6"
         style="font-style:normal;font-weight:normal;font-size:10.58333302px;line-height:1.25;font-family:sans-serif;letter-spacing:0px;word-spacing:0px;white-space:pre;shape-inside:url(#rect105225);display:inline;fill:#ffffe5;fill-opacity:1;stroke:#000000;stroke-width:0.05;stroke-linejoin:round;stroke-miterlimit:4;stroke-dasharray:none"
         id="g29074"
         transform="translate(-256.06717,-185.68215)">
        <path
           inkscape:connector-curvature="0"
           d="m 418.61676,370.08828 c -0.41005,0.10987 -0.65818,0.31511 -0.74439,0.6157 -0.0832,0.29979 0.0102,0.6552 0.2802,1.06624 0.26833,0.40849 0.59993,0.70008 0.99479,0.87476 0.3962,0.17133 0.79933,0.20206 1.20939,0.0922 0.41005,-0.10988 0.65668,-0.31471 0.73988,-0.6145 0.0845,-0.30313 -0.007,-0.65895 -0.27568,-1.06745 -0.27,-0.41103 -0.6031,-0.70221 -0.99931,-0.87355 -0.39319,-0.17213 -0.79482,-0.20327 -1.20488,-0.0934 0,0 0,0 0,0 m 0.23112,-2.89507 c 0,0 0.45999,0.70028 0.45999,0.70028 -0.28914,-0.0299 -0.56714,-0.0375 -0.83399,-0.0227 -0.26384,0.014 -0.51033,0.0517 -0.73948,0.11309 -0.60302,0.16158 -0.95183,0.45646 -1.04644,0.88462 -0.0916,0.42736 0.0675,0.99343 0.47727,1.69822 0.0329,-0.26841 0.14518,-0.49692 0.33686,-0.68554 0.19002,-0.19115 0.44633,-0.32995 0.76894,-0.4164 0.6784,-0.18177 1.32775,-0.15137 1.94805,0.0912 0.62165,0.23923 1.1283,0.65697 1.51996,1.25322 0.38333,0.58357 0.4858,1.10663 0.30741,1.56918 -0.17839,0.46256 -0.60829,0.78513 -1.28971,0.96772 -0.78092,0.20924 -1.54291,0.11802 -2.28597,-0.27368 -0.74474,-0.39423 -1.43127,-1.06961 -2.0596,-2.02616 -0.58999,-0.89818 -0.80672,-1.68155 -0.65018,-2.3501 0.15488,-0.67108 0.65896,-1.12095 1.51224,-1.34958 0.22914,-0.0614 0.4723,-0.10418 0.72946,-0.12834 0.26017,-0.025 0.5419,-0.0333 0.84517,-0.025 0,0 2e-5,2e-5 2e-5,2e-5"
           style="fill:#ffffe5;fill-opacity:1;stroke:#000000;stroke-width:0.05;stroke-linejoin:round;stroke-miterlimit:4;stroke-dasharray:none"
           id="path29072" />
      </g>
      <g
         aria-label="5"
         style="font-style:normal;font-weight:normal;font-size:10.58333302px;line-height:1.25;font-family:sans-serif;letter-spacing:0px;word-spacing:0px;white-space:pre;shape-inside:url(#rect105231);display:inline;fill:#ffffe5;fill-opacity:1;stroke:#000000;stroke-width:0.05;stroke-linejoin:round;stroke-miterlimit:4;stroke-dasharray:none"
         id="g29078"
         transform="translate(-256.06717,-185.68215)">
        <path
           inkscape:connector-curvature="0"
           d="m 403.52815,371.15491 c 0,0 3.58648,-0.961 3.58648,-0.961 0,0 0.425,0.647 0.425,0.647 0,0 -2.74978,0.7368 -2.74978,0.7368 0,0 0.91499,1.39295 0.91499,1.39295 0.10767,-0.0736 0.222,-0.13705 0.34299,-0.19037 0.11935,-0.0558 0.24535,-0.10151 0.37802,-0.13706 0.75377,-0.20197 1.46493,-0.18814 2.13347,0.0415 0.66853,0.22965 1.1978,0.64133 1.5878,1.23505 0.40166,0.61148 0.48803,1.1478 0.2591,1.60898 -0.23061,0.45864 -0.75748,0.79823 -1.58061,1.01879 -0.28341,0.0759 -0.5862,0.1332 -0.90835,0.17177 -0.31914,0.0378 -0.66216,0.0581 -1.02906,0.0609 0,0 -0.50749,-0.77259 -0.50749,-0.77259 0.35302,0.0516 0.69426,0.0691 1.02371,0.0524 0.32945,-0.0167 0.65549,-0.0682 0.9781,-0.15466 0.52162,-0.13977 0.85886,-0.3659 1.01172,-0.67838 0.15286,-0.31249 0.0993,-0.66664 -0.16071,-1.06245 -0.25999,-0.39581 -0.61809,-0.66836 -1.07428,-0.81766 -0.45619,-0.14929 -0.94509,-0.15405 -1.46671,-0.0143 -0.24423,0.0654 -0.47345,0.15371 -0.68768,0.26481 -0.21122,0.1103 -0.41179,0.24759 -0.60172,0.41188 0,0 -1.87499,-2.85441 -1.87499,-2.85441"
           style="fill:#ffffe5;fill-opacity:1;stroke:#000000;stroke-width:0.05;stroke-linejoin:round;stroke-miterlimit:4;stroke-dasharray:none"
           id="path29076" />
      </g>
      <g
         aria-label="4"
         style="font-style:normal;font-weight:normal;font-size:10.58333302px;line-height:1.25;font-family:sans-serif;letter-spacing:0px;word-spacing:0px;white-space:pre;shape-inside:url(#rect105237);display:inline;fill:#ffffe5;fill-opacity:1;stroke:#000000;stroke-width:0.05;stroke-linejoin:round;stroke-miterlimit:4;stroke-dasharray:none"
         id="g29082"
         transform="translate(-256.06717,-185.68215)">
        <path
           inkscape:connector-curvature="0"
           d="m 395.36105,374.00571 c 0,0 -0.31407,3.65132 -0.31407,3.65132 0,0 2.30655,-0.61804 2.30655,-0.61804 0,0 -1.99248,-3.03328 -1.99248,-3.03328 m -0.67969,-0.60561 c 0,0 1.14876,-0.30781 1.14876,-0.30781 0,0 2.43247,3.70311 2.43247,3.70311 0,0 0.96333,-0.25812 0.96333,-0.25812 0,0 0.42,0.63939 0.42,0.63939 0,0 -0.96333,0.25812 -0.96333,0.25812 0,0 0.87999,1.33967 0.87999,1.33967 0,0 -0.90906,0.24358 -0.90906,0.24358 0,0 -0.87999,-1.33966 -0.87999,-1.33966 0,0 -3.04828,0.81679 -3.04828,0.81679 0,0 -0.48749,-0.74215 -0.48749,-0.74215 0,0 0.4436,-4.35292 0.4436,-4.35292"
           style="fill:#ffffe5;fill-opacity:1;stroke:#000000;stroke-width:0.05;stroke-linejoin:round;stroke-miterlimit:4;stroke-dasharray:none"
           id="path29080" />
      </g>
      <g
         aria-label="3"
         style="font-style:normal;font-weight:normal;font-size:10.58333302px;line-height:1.25;font-family:sans-serif;letter-spacing:0px;word-spacing:0px;white-space:pre;shape-inside:url(#rect105243);display:inline;fill:#ffffe5;fill-opacity:1;stroke:#000000;stroke-width:0.05;stroke-linejoin:round;stroke-miterlimit:4;stroke-dasharray:none"
         id="g29086"
         transform="translate(-256.06717,-185.68215)">
        <path
           inkscape:connector-curvature="0"
           d="m 385.34261,378.97725 c 0.48885,-0.0385 0.93705,0.0339 1.34461,0.21707 0.41057,0.18241 0.73586,0.45629 0.97586,0.82165 0.36833,0.56074 0.42418,1.05601 0.16755,1.48582 -0.25663,0.4298 -0.80707,0.75781 -1.6513,0.98402 -0.28342,0.0759 -0.59172,0.13021 -0.92491,0.16278 -0.32849,0.0343 -0.68337,0.0474 -1.06464,0.0391 0,0 -0.48749,-0.74215 -0.48749,-0.74215 0.33493,0.0565 0.67398,0.076 1.01716,0.0587 0.34318,-0.0174 0.67909,-0.0701 1.00774,-0.15813 0.57287,-0.1535 0.94605,-0.36539 1.11955,-0.63566 0.17651,-0.27108 0.1456,-0.58804 -0.0927,-0.95087 -0.22,-0.33492 -0.53187,-0.55868 -0.9356,-0.6713 -0.40239,-0.11597 -0.85233,-0.10731 -1.34983,0.026 0,0 -0.78694,0.21086 -0.78694,0.21086 0,0 -0.41499,-0.63177 -0.41499,-0.63177 0,0 0.82312,-0.22056 0.82312,-0.22056 0.44925,-0.12037 0.74381,-0.28732 0.88367,-0.50084 0.1382,-0.21606 0.11396,-0.46618 -0.0727,-0.75036 -0.19167,-0.29178 -0.46195,-0.48193 -0.81086,-0.57045 -0.34756,-0.0919 -0.75048,-0.0764 -1.20878,0.0464 -0.25026,0.0671 -0.50361,0.16179 -0.76004,0.2842 -0.25645,0.12242 -0.52486,0.27789 -0.80524,0.46641 0,0 -0.45,-0.68506 -0.45,-0.68506 0.2934,-0.1741 0.57753,-0.32184 0.85237,-0.44323 0.27786,-0.1222 0.55096,-0.21926 0.8193,-0.29116 0.69348,-0.18582 1.32972,-0.19965 1.90875,-0.0415 0.57736,0.15562 1.01437,0.45924 1.31103,0.91087 0.20667,0.31462 0.27463,0.60971 0.20389,0.88528 -0.0724,0.27302 -0.2786,0.50432 -0.61858,0.69388 0,0 3e-5,5e-5 3e-5,5e-5"
           style="fill:#ffffe5;fill-opacity:1;stroke:#000000;stroke-width:0.05;stroke-linejoin:round;stroke-miterlimit:4;stroke-dasharray:none"
           id="path29084" />
      </g>
      <g
         aria-label="2"
         style="font-style:normal;font-weight:normal;font-size:10.58333302px;line-height:1.25;font-family:sans-serif;letter-spacing:0px;word-spacing:0px;white-space:pre;shape-inside:url(#rect105249);display:inline;fill:#ffffe5;fill-opacity:1;stroke:#000000;stroke-width:0.05;stroke-linejoin:round;stroke-miterlimit:4;stroke-dasharray:none"
         id="g29090"
         transform="translate(-256.06717,-185.68215)">
        <path
           inkscape:connector-curvature="0"
           d="m 373.81836,385.1624 c 0,0 3.18847,-0.85436 3.18847,-0.85436 0,0 0.425,0.647 0.425,0.647 0,0 -4.28749,1.14884 -4.28749,1.14884 0,0 -0.42499,-0.647 -0.42499,-0.647 0.1484,-0.39484 0.35444,-0.92597 0.6181,-1.59339 0.265,-0.67076 0.42606,-1.10032 0.48317,-1.28868 0.1108,-0.35493 0.16099,-0.64289 0.15056,-0.86388 -0.009,-0.22434 -0.0745,-0.42912 -0.19611,-0.61434 -0.19833,-0.30194 -0.48663,-0.51412 -0.8649,-0.63654 -0.37525,-0.12324 -0.76489,-0.13073 -1.16892,-0.0225 -0.28643,0.0767 -0.56196,0.19981 -0.82656,0.36918 -0.26158,0.16855 -0.51745,0.3863 -0.76759,0.65324 0,0 -0.51,-0.77639 -0.51,-0.77639 0.28618,-0.22289 0.56823,-0.40887 0.84617,-0.55794 0.27794,-0.14906 0.54957,-0.25915 0.8149,-0.33024 0.6995,-0.18743 1.35396,-0.18974 1.96338,-0.007 0.60942,0.18283 1.07579,0.52036 1.39912,1.01258 0.15333,0.23344 0.2464,0.46958 0.27921,0.70845 0.0342,0.23552 0.007,0.53213 -0.0803,0.88982 -0.027,0.0938 -0.12675,0.37114 -0.29911,0.83207 -0.17403,0.4584 -0.42139,1.10205 -0.74207,1.93096 0,0 0,0 0,0"
           style="fill:#ffffe5;fill-opacity:1;stroke:#000000;stroke-width:0.05;stroke-linejoin:round;stroke-miterlimit:4;stroke-dasharray:none"
           id="path29088" />
      </g>
      <path
         inkscape:connector-curvature="0"
         id="path10056"
         d="m 89.069214,237.03114 c -0.411453,-0.004 -0.830871,0.058 -1.25005,0.17568 v 0 c -0.278606,0.0782 -0.557054,0.18233 -0.833014,0.30594 v 2.40501 c 0.161263,-0.21053 0.323929,-0.42045 0.490405,-0.62839 0.648573,-0.82383 1.453303,-1.58776 2.323385,-2.17765 -0.239342,-0.0525 -0.483314,-0.0782 -0.730197,-0.0806 z"
         style="display:inline;fill:url(#linearGradient31616);fill-opacity:1;stroke:#000000;stroke-width:0.09091211;stroke-linecap:square;stroke-linejoin:round;stroke-miterlimit:4;stroke-dasharray:none;stroke-dashoffset:0;paint-order:normal" />
      <path
         style="display:inline;fill:#0000ff;fill-opacity:1;stroke:#000000;stroke-width:0.09091211;stroke-linecap:round;stroke-linejoin:miter;stroke-miterlimit:4;stroke-dasharray:none;paint-order:fill markers stroke"
         d="m 125.70199,251.58158 -0.17868,0.0479 c -0.55023,0.14757 -0.99318,-0.17659 -0.99318,-0.72681 v -5.71086 c 0,-0.55023 0.44295,-1.11198 0.99318,-1.25955 l 0.17868,-0.0479 c 0.55022,-0.14756 0.99318,0.17659 0.99318,0.72681 v 5.71087 c 0,0.55022 -0.44296,1.11197 -0.99318,1.25954 z"
         id="path31502"
         inkscape:connector-curvature="0" />
      <path
         inkscape:connector-curvature="0"
         style="display:inline;fill:url(#linearGradient31618);fill-opacity:1;stroke:#000000;stroke-width:0.09091211;stroke-linecap:square;stroke-linejoin:round;stroke-miterlimit:4;stroke-dasharray:none;stroke-dashoffset:0;paint-order:normal"
         d="m 134.98373,224.57447 c -1.61019,0.45212 -3.21645,1.71704 -4.35025,3.15726 -3.10824,3.88192 -5.28092,8.23112 -7.48537,12.54186 l 0.003,-7.3e-4 c -2.19746,4.29767 -4.36617,8.63208 -7.46485,12.50205 -0.64856,0.82386 -1.45303,1.58775 -2.32309,2.17762 0.63819,0.1399 1.30958,0.0932 1.98025,-0.0951 1.61019,-0.45212 3.21645,-1.71704 4.35025,-3.15726 3.10824,-3.88193 5.28094,-8.23113 7.48537,-12.54185 l -0.003,7.3e-4 c 2.19746,-4.29768 4.36616,-8.63209 7.46483,-12.50206 0.64857,-0.82385 1.45303,-1.58774 2.32312,-2.17761 -0.63822,-0.13992 -1.30959,-0.0932 -1.98028,0.0951 z"
         id="path31504" />
      <path
         inkscape:connector-curvature="0"
         id="path31506"
         d="m 180.37216,212.72977 c -0.95787,0.60674 -1.84613,1.43388 -2.55125,2.32958 -3.10808,3.88172 -5.28055,8.23084 -7.48482,12.54135 v 0 c -0.55099,1.07749 -1.10027,2.15747 -1.66243,3.23186 -0.42167,0.80592 -0.85016,1.60861 -1.29294,2.40501 0,0 0,0 0,0 -0.1475,0.26532 -0.29718,0.52993 -0.44802,0.79375 -0.15092,0.26392 -0.30371,0.52697 -0.45839,0.78909 0,0 0,0 0,0 -0.15462,0.26202 -0.31086,0.52293 -0.46971,0.78291 0,0 0,0 0,0 -0.31779,0.52006 -0.64532,1.0352 -0.9829,1.54564 0,0 0,0 0,0 -0.16876,0.25516 -0.34029,0.50935 -0.5147,0.76171 -0.34896,0.50495 -0.70927,1.00375 -1.08365,1.49603 -0.18722,0.24617 -0.37833,0.49067 -0.57259,0.73329 -0.40537,0.51494 -0.87116,1.00627 -1.37612,1.44643 -0.16931,0.14756 -0.34372,0.28823 -0.52091,0.42323 -0.0344,0.0262 -0.0683,0.0534 -0.10285,0.0791 -0.10639,0.0788 -0.21381,0.15526 -0.32244,0.22892 0.15954,0.0349 0.32101,0.0584 0.48421,0.0708 0.16314,0.0122 0.32777,0.0132 0.4935,0.005 0.16574,-0.009 0.33248,-0.0277 0.49972,-0.0563 0.16722,-0.0287 0.33512,-0.067 0.50281,-0.11422 0.80494,-0.22606 1.60888,-0.65555 2.35334,-1.20819 0.27919,-0.20727 0.55044,-0.4314 0.80976,-0.66921 0.17277,-0.15838 0.34065,-0.32314 0.50231,-0.49197 0,0 0,0 0,0 0.16171,-0.16893 0.31734,-0.34247 0.46614,-0.51935 0.0745,-0.0885 0.14722,-0.17767 0.21807,-0.26768 0.77706,-0.97049 1.49569,-1.97053 2.17091,-2.99156 0.0763,-0.11531 0.15015,-0.23193 0.22532,-0.34777 0.18433,-0.28406 0.36539,-0.56928 0.54364,-0.85627 0.0708,-0.11414 0.14292,-0.22807 0.21291,-0.34264 0.15885,-0.25995 0.31562,-0.52038 0.47024,-0.78237 0,0 0,0 0,0 0.1546,-0.26202 0.30755,-0.52533 0.45839,-0.78912 0.15092,-0.26392 0.30038,-0.52877 0.44802,-0.79425 0.14753,-0.26535 0.2935,-0.53176 0.43823,-0.79841 0.28964,-0.53356 0.57412,-1.06984 0.85524,-1.60713 0.56224,-1.07458 1.11133,-2.15418 1.66243,-3.23186 v 0 c 1.84274,-3.60344 3.66564,-7.23291 6.02908,-10.59468 z"
         style="display:inline;fill:url(#linearGradient31620);fill-opacity:1;stroke:#000000;stroke-width:0.09091211;stroke-linecap:square;stroke-linejoin:round;stroke-miterlimit:4;stroke-dasharray:none;stroke-dashoffset:0;paint-order:normal" />
      <path
         style="display:inline;fill:#00ff00;fill-opacity:1;stroke:#000000;stroke-width:0.09091211;stroke-linecap:round;stroke-linejoin:miter;stroke-miterlimit:4;stroke-dasharray:none;paint-order:fill markers stroke"
         d="m 125.70199,251.58158 -0.17867,0.0479 c -0.55023,0.14757 -0.99318,-0.17659 -0.99318,-0.72681 v -5.71087 c 0,-0.55022 0.44295,-1.11197 0.99318,-1.25954 l 0.17867,-0.0479 c 0.55022,-0.14756 0.99318,0.1766 0.99318,0.72681 v 5.71087 c 0,0.55022 -0.44296,1.11197 -0.99318,1.25954 z"
         id="path31508"
         inkscape:connector-curvature="0" />
      <path
         style="display:inline;fill:#0000ff;fill-opacity:1;stroke:#000000;stroke-width:0.09091211;stroke-linecap:round;stroke-linejoin:miter;stroke-miterlimit:4;stroke-dasharray:none;paint-order:fill markers stroke"
         d="m 153.60489,240.70635 -0.17868,0.0479 c -0.55023,0.14757 -0.99318,-0.1766 -0.99318,-0.72681 v -12.10502 c 0,-0.55022 0.44295,-1.11198 0.99318,-1.25955 l 0.17868,-0.0479 c 0.55022,-0.14756 0.99318,0.1766 0.99318,0.72682 v 12.10502 c 0,0.55021 -0.44296,1.11197 -0.99318,1.25954 z"
         id="path31510"
         inkscape:connector-curvature="0" />
      <path
         style="display:inline;fill:#ff00ff;fill-opacity:1;stroke:#000000;stroke-width:0.09091211;stroke-linecap:round;stroke-linejoin:miter;stroke-miterlimit:4;stroke-dasharray:none;paint-order:fill markers stroke"
         d="m 153.60489,230.55437 -0.17868,0.0479 c -0.55023,0.14756 -0.99318,-0.17659 -0.99318,-0.72682 v -8.92309 c 0,-0.55022 0.44295,-1.11198 0.99318,-1.25955 l 0.17868,-0.0479 c 0.55022,-0.14756 0.99318,0.1766 0.99318,0.72682 v 8.92309 c 0,0.55023 -0.44296,1.11198 -0.99318,1.25954 z"
         id="path31512"
         inkscape:connector-curvature="0" />
      <path
         style="display:inline;fill:#ff0000;fill-opacity:1;stroke:#000000;stroke-width:0.09091211;stroke-linecap:round;stroke-linejoin:miter;stroke-miterlimit:4;stroke-dasharray:none;paint-order:fill markers stroke"
         d="m 158.89679,243.16002 -0.17869,0.0479 c -0.55022,0.14756 -0.99318,-0.1766 -0.99318,-0.72682 v -12.55958 c 0,-0.55021 0.44296,-1.11197 0.99318,-1.25954 l 0.17869,-0.0479 c 0.55022,-0.14757 0.99318,0.1766 0.99318,0.72681 v 12.55958 c 0,0.55022 -0.44296,1.11198 -0.99318,1.25955 z"
         id="path31514"
         inkscape:connector-curvature="0" />
      <path
         style="display:inline;fill:#00ff00;fill-opacity:1;stroke:#000000;stroke-width:0.09091211;stroke-linecap:round;stroke-linejoin:miter;stroke-miterlimit:4;stroke-dasharray:none;paint-order:fill markers stroke"
         d="m 158.89679,233.05742 -0.17869,0.0479 c -0.55022,0.14756 -0.99318,-0.1766 -0.99318,-0.72681 v -9.10492 c 0,-0.55022 0.44296,-1.11198 0.99318,-1.25955 l 0.17869,-0.0479 c 0.55022,-0.14756 0.99318,0.1766 0.99318,0.72681 v 9.10492 c 0,0.55022 -0.44296,1.11198 -0.99318,1.25955 z"
         id="path31516"
         inkscape:connector-curvature="0" />
      <path
         style="display:inline;fill:#0000ff;fill-opacity:1;stroke:#000000;stroke-width:0.09091211;stroke-linecap:round;stroke-linejoin:miter;stroke-miterlimit:4;stroke-dasharray:none;paint-order:fill markers stroke"
         d="m 164.18871,241.04264 -0.17868,0.0479 c -0.55022,0.14757 -0.99318,-0.17659 -0.99318,-0.72681 v -5.71087 c 0,-0.55022 0.44296,-1.11198 0.99318,-1.25954 l 0.17868,-0.0479 c 0.55023,-0.14757 0.99318,0.17659 0.99318,0.72681 v 5.71087 c 0,0.55022 -0.44295,1.11198 -0.99318,1.25954 z"
         id="path31518"
         inkscape:connector-curvature="0" />
      <path
         style="display:inline;fill:#ff00ff;fill-opacity:1;stroke:#000000;stroke-width:0.09091211;stroke-linecap:round;stroke-linejoin:miter;stroke-miterlimit:4;stroke-dasharray:none;paint-order:fill markers stroke"
         d="m 164.21975,235.98301 -0.24076,0.0646 c -0.53302,0.14296 -0.96214,-0.17107 -0.96214,-0.7041 v -6.44145 c 0,-0.53302 0.42912,-1.07722 0.96214,-1.22018 l 0.24076,-0.0646 c 0.53302,-0.14295 0.96214,0.17108 0.96214,0.70411 v 6.44145 c 0,0.53302 -0.42912,1.07722 -0.96214,1.22018 z"
         id="path31520"
         inkscape:connector-curvature="0" />
      <path
         style="display:inline;fill:#0000ff;fill-opacity:1;stroke:#000000;stroke-width:0.09091211;stroke-linecap:round;stroke-linejoin:miter;stroke-miterlimit:4;stroke-dasharray:none;paint-order:fill markers stroke"
         d="m 172.67222,238.98448 -0.17869,0.0479 c -0.55022,0.14756 -0.99318,-0.17659 -0.99318,-0.72682 v -5.71086 c 0,-0.55022 0.44296,-1.11198 0.99318,-1.25954 l 0.17869,-0.0479 c 0.55022,-0.14757 0.99318,0.17659 0.99318,0.72681 v 5.71086 c 0,0.55023 -0.44296,1.11198 -0.99318,1.25955 z"
         id="path31524"
         inkscape:connector-curvature="0" />
      <path
         style="display:inline;fill:#0000ff;fill-opacity:1;stroke:#000000;stroke-width:0.09091211;stroke-linecap:round;stroke-linejoin:miter;stroke-miterlimit:4;stroke-dasharray:none;paint-order:fill markers stroke"
         d="m 111.40922,255.89587 -0.17869,0.0479 c -0.55022,0.14757 -0.99318,-0.17659 -0.99318,-0.72681 v -12.55958 c 0,-0.55022 0.44296,-1.11198 0.99318,-1.25955 l 0.17869,-0.0479 c 0.55023,-0.14757 0.99318,0.1766 0.99318,0.72682 v 12.55958 c 0,0.55021 -0.44295,1.11197 -0.99318,1.25954 z"
         id="path31526"
         inkscape:connector-curvature="0" />
      <path
         style="display:inline;fill:#ff00ff;fill-opacity:1;stroke:#000000;stroke-width:0.09091211;stroke-linecap:round;stroke-linejoin:miter;stroke-miterlimit:4;stroke-dasharray:none;paint-order:fill markers stroke"
         d="m 111.40922,245.79327 -0.17869,0.0479 c -0.55022,0.14757 -0.99318,-0.17659 -0.99318,-0.72681 v -9.10492 c 0,-0.55022 0.44296,-1.11198 0.99318,-1.25954 l 0.17869,-0.0479 c 0.55023,-0.14757 0.99318,0.1766 0.99318,0.72682 v 9.10492 c 0,0.55022 -0.44295,1.11197 -0.99318,1.25954 z"
         id="path31528"
         inkscape:connector-curvature="0" />
      <path
         style="display:inline;fill:#ff00ff;fill-opacity:1;stroke:#000000;stroke-width:0.09091211;stroke-linecap:round;stroke-linejoin:miter;stroke-miterlimit:4;stroke-dasharray:none;paint-order:fill markers stroke"
         d="m 116.70114,253.7785 -0.17868,0.0479 c -0.55022,0.14756 -0.99318,-0.1766 -0.99318,-0.72682 v -5.71087 c 0,-0.55022 0.44296,-1.11198 0.99318,-1.25954 l 0.17868,-0.0479 c 0.55023,-0.14757 0.99319,0.17659 0.99319,0.72681 v 5.71087 c 0,0.55022 -0.44296,1.11198 -0.99319,1.25955 z"
         id="path31530"
         inkscape:connector-curvature="0" />
      <path
         style="display:inline;fill:#0000ff;fill-opacity:1;stroke:#000000;stroke-width:0.09091211;stroke-linecap:round;stroke-linejoin:miter;stroke-miterlimit:4;stroke-dasharray:none;paint-order:fill markers stroke"
         d="m 116.73218,248.71886 -0.24075,0.0646 c -0.53303,0.14295 -0.96215,-0.17108 -0.96215,-0.7041 v -6.44145 c 0,-0.53303 0.42912,-1.07723 0.96215,-1.22018 l 0.24075,-0.0646 c 0.53303,-0.14296 0.96215,0.17107 0.96215,0.7041 v 6.44145 c 0,0.53302 -0.42912,1.07722 -0.96215,1.22018 z"
         id="path31532"
         inkscape:connector-curvature="0" />
      <path
         id="path31542"
         d="m 150.37819,220.44578 c -1.61019,0.45212 -3.21646,1.71703 -4.35026,3.15726 -3.10824,3.88192 -5.28092,8.23112 -7.48536,12.54186 l 0.003,-7.3e-4 c -2.19745,4.29767 -4.36617,8.63208 -7.46484,12.50205 -0.64856,0.82386 -1.45303,1.58775 -2.32309,2.17761 0.63818,0.13991 1.30958,0.0932 1.98025,-0.0951 1.61019,-0.45211 3.21645,-1.71703 4.35024,-3.15725 3.10825,-3.88193 5.28095,-8.23113 7.48538,-12.54185 l -0.003,7.3e-4 c 2.19745,-4.29768 4.36615,-8.63209 7.46483,-12.50206 0.64857,-0.82385 1.45303,-1.58774 2.32311,-2.17761 -0.63821,-0.13992 -1.30959,-0.0932 -1.98027,0.0951 z"
         style="display:inline;fill:url(#linearGradient31622);fill-opacity:1;stroke:#000000;stroke-width:0.09091211;stroke-linecap:square;stroke-linejoin:round;stroke-miterlimit:4;stroke-dasharray:none;stroke-dashoffset:0;paint-order:normal"
         inkscape:connector-curvature="0" />
      <path
         inkscape:connector-curvature="0"
         id="path31544"
         d="m 180.37216,233.08771 c -0.15481,0.23323 -0.31123,0.46628 -0.47077,0.6971 -0.34894,0.50496 -0.70927,1.00322 -1.08366,1.49553 -0.18722,0.24617 -0.3783,0.49067 -0.57256,0.73329 -0.40536,0.51491 -0.87119,1.00624 -1.37615,1.44643 -0.16928,0.14753 -0.34369,0.2877 -0.52088,0.42269 -0.0344,0.0262 -0.0683,0.0539 -0.10285,0.0796 -0.10641,0.0788 -0.21381,0.15528 -0.32247,0.22892 0.15957,0.0349 0.32105,0.0585 0.48421,0.0708 0.16317,0.0122 0.3278,0.0132 0.4935,0.005 0.16577,-0.009 0.33248,-0.0276 0.49972,-0.0563 0.16722,-0.0287 0.33515,-0.067 0.50282,-0.11422 0.80497,-0.22603 1.60888,-0.65553 2.35333,-1.20819 0.0392,-0.0291 0.0769,-0.0607 0.11576,-0.0904 z"
         style="display:inline;fill:url(#linearGradient31624);fill-opacity:1;stroke:#000000;stroke-width:0.0909121;stroke-linecap:square;stroke-linejoin:round;stroke-miterlimit:4;stroke-dasharray:none;stroke-dashoffset:0;paint-order:normal" />
      <path
         inkscape:connector-curvature="0"
         id="path31546"
         d="m 104.46362,232.90218 c -0.41145,-0.004 -0.83089,0.0585 -1.25005,0.17622 v 0 c -1.61017,0.45212 -3.216297,1.71669 -4.350116,3.1569 -3.108087,3.88175 -5.28103,8.23084 -7.485327,12.54135 v 0 c -0.551021,1.07747 -1.099767,2.15747 -1.661901,3.23184 -0.421719,0.80594 -0.850185,1.60864 -1.292939,2.40503 0,0 0,0 0,0 -0.147532,0.26535 -0.297207,0.52996 -0.448046,0.79375 -0.150891,0.26393 -0.303715,0.527 -0.458364,0.78912 0,0 0,0 0,0 -0.154622,0.26202 -0.311414,0.52293 -0.47027,0.78291 0,0 0,0 0,0 -0.01984,0.0325 -0.04051,0.0647 -0.06046,0.0971 v 4.37907 c 0.07668,-0.0755 0.156289,-0.14833 0.230478,-0.22583 0,0 0,0 0,0 0.161714,-0.16891 0.316812,-0.34194 0.465614,-0.51882 0.07448,-0.0885 0.147717,-0.17819 0.218572,-0.26821 0.777081,-0.97046 1.495716,-1.97053 2.170933,-2.99153 0.07631,-0.11534 0.150151,-0.23143 0.225319,-0.34727 0.184309,-0.28406 0.36539,-0.56978 0.543639,-0.8568 0.07088,-0.11414 0.142902,-0.22754 0.212911,-0.34211 0.158829,-0.25995 0.315621,-0.52088 0.470244,-0.78287 0,0 0,0 0,0 0.154596,-0.26199 0.307551,-0.5253 0.458364,-0.78909 0.150918,-0.26393 0.300408,-0.5288 0.448045,-0.79428 0.147532,-0.26535 0.293476,-0.53174 0.438203,-0.79838 0.289639,-0.53359 0.574119,-1.06934 0.855266,-1.60663 0.562213,-1.07461 1.111329,-2.15469 1.66243,-3.23236 2.204296,-4.31054 4.376711,-8.65961 7.484805,-12.54136 0.64857,-0.82386 1.4533,-1.58776 2.32338,-2.17765 -0.23934,-0.0525 -0.48331,-0.0788 -0.7302,-0.0811 z"
         style="display:inline;fill:url(#linearGradient31626);fill-opacity:1;stroke:#000000;stroke-width:0.09091211;stroke-linecap:square;stroke-linejoin:round;stroke-miterlimit:4;stroke-dasharray:none;stroke-dashoffset:0;paint-order:normal" />
      <path
         style="display:inline;fill:#ff00ff;fill-opacity:1;stroke:#000000;stroke-width:0.09091211;stroke-linecap:round;stroke-linejoin:miter;stroke-miterlimit:4;stroke-dasharray:none;paint-order:fill markers stroke"
         d="m 93.37235,249.05538 -0.1787,0.0479 c -0.55022,0.14757 -0.99318,-0.17658 -0.99318,-0.72681 v -6.19573 c 0,-0.55022 0.44296,-1.11198 0.99318,-1.25955 l 0.1787,-0.0479 c 0.55022,-0.14757 0.99318,0.17659 0.99318,0.72681 v 6.19574 c 0,0.55022 -0.44296,1.11197 -0.99318,1.25954 z"
         id="path31548"
         inkscape:connector-curvature="0" />
      <path
         style="display:inline;fill:#0000ff;fill-opacity:1;stroke:#000000;stroke-width:0.09091211;stroke-linecap:round;stroke-linejoin:miter;stroke-miterlimit:4;stroke-dasharray:none;paint-order:fill markers stroke"
         d="m 93.37235,243.76354 -0.1787,0.0479 c -0.55022,0.14757 -0.99318,-0.17659 -0.99318,-0.72681 v -4.37749 c 0,-0.55022 0.44296,-1.11198 0.99318,-1.25954 l 0.1787,-0.0479 c 0.55022,-0.14756 0.99318,0.1766 0.99318,0.72682 v 4.37749 c 0,0.55021 -0.44296,1.11197 -0.99318,1.25954 z"
         id="path31550"
         inkscape:connector-curvature="0" />
      <path
         style="display:inline;fill:#0000ff;fill-opacity:1;stroke:#000000;stroke-width:0.09091211;stroke-linecap:round;stroke-linejoin:miter;stroke-miterlimit:4;stroke-dasharray:none;paint-order:fill markers stroke"
         d="m 100.82538,246.22637 -0.17869,0.0479 c -0.55022,0.14757 -0.99318,-0.17659 -0.99318,-0.72681 v -5.71087 c 0,-0.55022 0.44296,-1.11198 0.99318,-1.25955 l 0.17869,-0.0479 c 0.55022,-0.14756 0.99318,0.1766 0.99318,0.72682 v 5.71087 c 0,0.55022 -0.44296,1.11198 -0.99318,1.25954 z"
         id="path31552"
         inkscape:connector-curvature="0" />
      <path
         style="display:inline;fill:#ff00ff;fill-opacity:1;stroke:#000000;stroke-width:0.09091211;stroke-linecap:round;stroke-linejoin:miter;stroke-miterlimit:4;stroke-dasharray:none;paint-order:fill markers stroke"
         d="m 100.85642,240.6857 -0.24077,0.0646 c -0.53302,0.14295 -0.96214,-0.17107 -0.96214,-0.7041 v -3.71409 c 0,-0.53303 0.42912,-1.07723 0.96214,-1.22018 l 0.24077,-0.0646 c 0.53302,-0.14295 0.96214,0.17107 0.96214,0.7041 v 3.71409 c 0,0.53302 -0.42912,1.07722 -0.96214,1.22018 z"
         id="path31554"
         inkscape:connector-curvature="0" />
      <path
         style="display:inline;fill:#ff0000;fill-opacity:1;stroke:#000000;stroke-width:0.09091211;stroke-linecap:round;stroke-linejoin:miter;stroke-miterlimit:4;stroke-dasharray:none;paint-order:fill markers stroke"
         d="m 106.11733,253.4422 -0.17869,0.0479 c -0.55023,0.14757 -0.99318,-0.17659 -0.99318,-0.72681 v -12.105 c 0,-0.55022 0.44295,-1.11198 0.99318,-1.25954 l 0.17869,-0.0479 c 0.55022,-0.14756 0.99318,0.1766 0.99318,0.72682 v 12.10502 c 0,0.55022 -0.44296,1.11198 -0.99318,1.25954 z"
         id="path31556"
         inkscape:connector-curvature="0" />
      <path
         style="display:inline;fill:#00ff00;fill-opacity:1;stroke:#000000;stroke-width:0.09091211;stroke-linecap:round;stroke-linejoin:miter;stroke-miterlimit:4;stroke-dasharray:none;paint-order:fill markers stroke"
         d="m 106.11733,243.29023 -0.17869,0.0479 c -0.55023,0.14757 -0.99318,-0.17659 -0.99318,-0.72681 v -8.9231 c 0,-0.55022 0.44295,-1.11198 0.99318,-1.25954 l 0.17869,-0.0479 c 0.55022,-0.14756 0.99318,0.1766 0.99318,0.72682 v 8.92309 c 0,0.55023 -0.44296,1.11198 -0.99318,1.25955 z"
         id="path31558"
         inkscape:connector-curvature="0" />
      <path
         style="display:inline;fill:#00ff00;fill-opacity:1;stroke:#000000;stroke-width:0.09091211;stroke-linecap:round;stroke-linejoin:miter;stroke-miterlimit:4;stroke-dasharray:none;paint-order:fill markers stroke"
         d="m 140.6156,236.38505 -0.17869,0.0479 c -0.55023,0.14757 -0.99318,-0.17658 -0.99318,-0.72681 v -6.19573 c 0,-0.55022 0.44295,-1.11198 0.99318,-1.25955 l 0.17869,-0.0479 c 0.55022,-0.14756 0.99318,0.1766 0.99318,0.72681 v 6.19574 c 0,0.55023 -0.44296,1.11198 -0.99318,1.25954 z"
         id="path31560"
         inkscape:connector-curvature="0" />
      <path
         style="display:inline;fill:#ff0000;fill-opacity:1;stroke:#000000;stroke-width:0.09091211;stroke-linecap:round;stroke-linejoin:miter;stroke-miterlimit:4;stroke-dasharray:none;paint-order:fill markers stroke"
         d="m 140.6156,231.09321 -0.17869,0.0479 c -0.55023,0.14757 -0.99318,-0.17659 -0.99318,-0.72681 v -4.37749 c 0,-0.55022 0.44295,-1.11198 0.99318,-1.25954 l 0.17869,-0.0479 c 0.55022,-0.14756 0.99318,0.1766 0.99318,0.72682 v 4.37749 c 0,0.55022 -0.44296,1.11198 -0.99318,1.25954 z"
         id="path31562"
         inkscape:connector-curvature="0" />
      <path
         style="display:inline;fill:#ff00ff;fill-opacity:1;stroke:#000000;stroke-width:0.09091211;stroke-linecap:round;stroke-linejoin:miter;stroke-miterlimit:4;stroke-dasharray:none;paint-order:fill markers stroke"
         d="m 148.31294,233.49052 -0.17868,0.0479 c -0.55022,0.14757 -0.99318,-0.1766 -0.99318,-0.72681 v -5.71088 c 0,-0.55021 0.44296,-1.11197 0.99318,-1.25954 l 0.17868,-0.0479 c 0.55022,-0.14757 0.99318,0.1766 0.99318,0.72681 v 5.71088 c 0,0.55021 -0.44296,1.11197 -0.99318,1.25954 z"
         id="path31564"
         inkscape:connector-curvature="0" />
      <path
         style="display:inline;fill:url(#linearGradient31628);fill-opacity:1;stroke:#000000;stroke-width:0.09091211;stroke-linecap:square;stroke-linejoin:round;stroke-miterlimit:4;stroke-dasharray:none;stroke-dashoffset:0;paint-order:normal"
         d="m 103.17505,233.08887 0.005,-3.1e-4 c 0.007,-0.002 0.0151,-0.005 0.0226,-0.007 z m 0.07,-0.0188 c 0.66006,-0.18066 1.32017,-0.22463 1.94826,-0.087 0.0582,0.0128 0.11628,0.0263 0.17384,0.0422 3.20522,0.85556 5.1281,3.59449 7.08508,5.97934 0.86098,1.12869 1.68107,2.29299 2.51344,3.44654 l 9.1e-4,-2.5e-4 c 0.82874,1.14879 1.6457,2.30798 2.50308,3.43194 1.95697,2.38484 3.87986,5.12377 7.08508,5.97933 0.66939,0.18484 1.37944,0.15434 2.08968,-0.0361 l 4.0572,-1.08811 c -0.65195,0.17848 -1.30422,0.22169 -1.92524,0.0893 l -0.0399,0.003 c -0.0583,-0.0127 -0.11661,-0.0261 -0.1743,-0.0421 -3.20521,-0.85556 -5.1281,-3.59449 -7.08507,-5.97934 -0.86098,-1.1287 -1.68107,-2.29299 -2.51344,-3.44654 l -9.1e-4,2.5e-4 c -0.82875,-1.14879 -1.64572,-2.30798 -2.50311,-3.43193 -1.95697,-2.38484 -3.87984,-5.12379 -7.08508,-5.97934 -0.66937,-0.18485 -1.37944,-0.15434 -2.08968,0.0361 z"
         id="path31566"
         inkscape:connector-curvature="0" />
      <path
         style="display:inline;fill:url(#linearGradient31630);fill-opacity:1;stroke:#000000;stroke-width:0.09091211;stroke-linecap:square;stroke-linejoin:round;stroke-miterlimit:4;stroke-dasharray:none;stroke-dashoffset:0;paint-order:normal"
         d="m 150.34027,220.45638 0.005,-3.1e-4 c 0.007,-0.002 0.015,-0.005 0.0225,-0.007 z m 0.0695,-0.0186 c 0.66022,-0.1807 1.32051,-0.22485 1.94875,-0.0871 0.0583,0.0127 0.11613,0.0262 0.17382,0.0422 3.20522,0.85555 5.1281,3.59449 7.08508,5.97933 0.86098,1.1287 1.68107,2.29299 2.51343,3.44654 l 9e-4,-2.4e-4 c 0.82875,1.1488 1.64571,2.30798 2.50312,3.43193 1.95697,2.38485 3.87985,5.12378 7.08505,5.97934 0.66944,0.18483 1.37944,0.15434 2.08968,-0.0361 l 4.0572,-1.08811 c -0.15575,0.0426 -0.31162,0.0781 -0.46697,0.10505 -0.16726,0.0287 -0.33366,0.0476 -0.49939,0.0564 -0.16576,0.009 -0.33062,0.008 -0.49378,-0.005 -0.1568,-0.0119 -0.31207,-0.0346 -0.46556,-0.0673 l -0.0394,0.002 c -0.0582,-0.0128 -0.11613,-0.0262 -0.17382,-0.0422 -3.20524,-0.85555 -5.12856,-3.59436 -7.08556,-5.97921 -0.86098,-1.12869 -1.68107,-2.29299 -2.51343,-3.44654 l -9.1e-4,2.5e-4 c -0.82875,-1.14879 -1.64526,-2.3081 -2.50263,-3.43206 -1.95697,-2.38484 -3.88032,-5.12366 -7.08554,-5.97921 -0.66939,-0.18485 -1.37898,-0.15447 -2.08921,0.036 z"
         id="path31568"
         inkscape:connector-curvature="0" />
      <path
         inkscape:connector-curvature="0"
         id="path31572"
         d="m 87.78059,237.21756 0.005,-3.1e-4 c 0.007,-0.002 0.0151,-0.005 0.0225,-0.007 z m 0.07,-0.0188 c 0.66006,-0.18066 1.32017,-0.22463 1.94827,-0.087 0.0582,0.0128 0.11627,0.0263 0.17383,0.0422 3.20523,0.85556 5.12811,3.59449 7.08508,5.97934 0.86098,1.1287 1.68108,2.29299 2.51344,3.44654 l 9.1e-4,-2.5e-4 c 0.82874,1.14879 1.64571,2.30798 2.50308,3.43194 1.95698,2.38484 3.87987,5.12378 7.08508,5.97933 0.6694,0.18484 1.37945,0.15434 2.08968,-0.0361 l 4.05721,-1.08812 c -0.65196,0.17849 -1.30423,0.22169 -1.92525,0.0893 l -0.0399,0.003 c -0.0583,-0.0127 -0.11661,-0.0261 -0.17429,-0.0421 -3.20522,-0.85556 -5.12811,-3.59448 -7.08508,-5.97934 -0.86098,-1.12869 -1.68107,-2.29299 -2.51343,-3.44654 l -9.1e-4,2.5e-4 c -0.82876,-1.14879 -1.64572,-2.30798 -2.50311,-3.43193 -1.95698,-2.38484 -3.87984,-5.12378 -7.08508,-5.97933 -0.66938,-0.18486 -1.37945,-0.15435 -2.08968,0.0361 z"
         style="display:inline;fill:url(#linearGradient31634);fill-opacity:1;stroke:#000000;stroke-width:0.09091211;stroke-linecap:square;stroke-linejoin:round;stroke-miterlimit:4;stroke-dasharray:none;stroke-dashoffset:0;paint-order:normal" />
      <path
         inkscape:connector-curvature="0"
         id="path31576"
         d="m 134.94581,224.58507 0.005,-3.1e-4 c 0.007,-0.002 0.015,-0.005 0.0225,-0.007 z m 0.0695,-0.0186 c 0.66021,-0.1807 1.32051,-0.22485 1.94875,-0.0871 0.0583,0.0127 0.11613,0.0262 0.17381,0.0422 3.20522,0.85555 5.12811,3.59449 7.08508,5.97933 0.86098,1.1287 1.68107,2.293 2.51343,3.44655 l 9.1e-4,-2.5e-4 c 0.82874,1.1488 1.64571,2.30798 2.50311,3.43193 1.95697,2.38485 3.87985,5.12378 7.08505,5.97934 0.66944,0.18483 1.37944,0.15435 2.08968,-0.0361 l 4.05721,-1.08811 c -0.15575,0.0426 -0.31162,0.0781 -0.46698,0.10506 -0.16725,0.0287 -0.33366,0.0476 -0.49938,0.0564 -0.16576,0.009 -0.33062,0.008 -0.49378,-0.005 -0.15681,-0.0119 -0.31208,-0.0346 -0.46556,-0.0673 l -0.0395,0.002 c -0.0582,-0.0128 -0.11613,-0.0262 -0.17381,-0.0422 -3.20525,-0.85555 -5.12856,-3.59436 -7.08557,-5.9792 -0.86098,-1.1287 -1.68107,-2.293 -2.51342,-3.44655 l -9.1e-4,2.5e-4 c -0.82876,-1.14879 -1.64527,-2.3081 -2.50264,-3.43206 -1.95697,-2.38484 -3.88031,-5.12365 -7.08554,-5.97921 -0.66939,-0.18485 -1.37898,-0.15446 -2.08921,0.036 z"
         style="display:inline;fill:url(#linearGradient31638);fill-opacity:1;stroke:#000000;stroke-width:0.09091211;stroke-linecap:square;stroke-linejoin:round;stroke-miterlimit:4;stroke-dasharray:none;stroke-dashoffset:0;paint-order:normal" />
      <path
         style="display:inline;fill:#ff0000;fill-opacity:1;stroke:#000000;stroke-width:0.09091211;stroke-linecap:round;stroke-linejoin:miter;stroke-miterlimit:4;stroke-dasharray:none;paint-order:fill markers stroke"
         d="m 125.73303,245.55978 -0.24075,0.0646 c -0.53303,0.14296 -0.96214,-0.17108 -0.96214,-0.70411 v -5.5324 c 0,-0.53303 0.42911,-1.07723 0.96214,-1.22018 l 0.24075,-0.0646 c 0.53303,-0.14295 0.96214,0.17107 0.96214,0.7041 v 5.5324 c 0,0.53303 -0.42911,1.07724 -0.96214,1.22019 z"
         id="path31580"
         inkscape:connector-curvature="0" />
      <path
         style="display:inline;fill:#ff00ff;fill-opacity:1;stroke:#000000;stroke-width:0.09091211;stroke-linecap:round;stroke-linejoin:miter;stroke-miterlimit:4;stroke-dasharray:none;paint-order:fill markers stroke"
         d="m 130.6732,250.7294 -0.17869,0.0479 c -0.55023,0.14757 -0.99318,-0.1766 -0.99318,-0.72681 v -12.55958 c 0,-0.55022 0.44295,-1.11198 0.99318,-1.25955 l 0.17869,-0.0479 c 0.55021,-0.14757 0.99317,0.1766 0.99317,0.72681 v 12.55958 c 0,0.55022 -0.44296,1.11198 -0.99317,1.25955 z"
         id="path31582"
         inkscape:connector-curvature="0" />
      <path
         style="display:inline;fill:#0000ff;fill-opacity:1;stroke:#000000;stroke-width:0.09091211;stroke-linecap:round;stroke-linejoin:miter;stroke-miterlimit:4;stroke-dasharray:none;paint-order:fill markers stroke"
         d="m 130.6732,240.6268 -0.17869,0.0479 c -0.55023,0.14757 -0.99318,-0.1766 -0.99318,-0.72681 v -9.10492 c 0,-0.55022 0.44295,-1.11198 0.99318,-1.25955 l 0.17869,-0.0479 c 0.55021,-0.14756 0.99317,0.1766 0.99317,0.72682 v 9.10492 c 0,0.55021 -0.44296,1.11197 -0.99317,1.25954 z"
         id="path31584"
         inkscape:connector-curvature="0" />
      <path
         style="display:inline;fill:#00ff00;fill-opacity:1;stroke:#000000;stroke-width:0.09091211;stroke-linecap:round;stroke-linejoin:miter;stroke-miterlimit:4;stroke-dasharray:none;paint-order:fill markers stroke"
         d="m 135.6444,245.52323 -0.17869,0.0479 c -0.55023,0.14756 -0.99318,-0.1766 -0.99318,-0.72682 v -12.10502 c 0,-0.55022 0.44295,-1.11197 0.99318,-1.25954 l 0.17869,-0.0479 c 0.55022,-0.14757 0.99318,0.17659 0.99318,0.72681 v 12.10502 c 0,0.55022 -0.44296,1.11198 -0.99318,1.25954 z"
         id="path31586"
         inkscape:connector-curvature="0" />
      <path
         style="display:inline;fill:#ff0000;fill-opacity:1;stroke:#000000;stroke-width:0.09091211;stroke-linecap:round;stroke-linejoin:miter;stroke-miterlimit:4;stroke-dasharray:none;paint-order:fill markers stroke"
         d="m 135.6444,235.37126 -0.17869,0.0479 c -0.55023,0.14757 -0.99318,-0.17658 -0.99318,-0.72681 v -8.9231 c 0,-0.55022 0.44295,-1.11197 0.99318,-1.25954 l 0.17869,-0.0479 c 0.55022,-0.14757 0.99318,0.17659 0.99318,0.72681 v 8.9231 c 0,0.55023 -0.44296,1.11198 -0.99318,1.25954 z"
         id="path31588"
         inkscape:connector-curvature="0" />
      <path
         style="display:inline;fill:#0000ff;fill-opacity:1;stroke:#000000;stroke-width:0.09091211;stroke-linecap:round;stroke-linejoin:miter;stroke-miterlimit:4;stroke-dasharray:none;paint-order:fill markers stroke"
         d="m 148.34397,227.94985 -0.24075,0.0646 c -0.53303,0.14295 -0.96214,-0.17108 -0.96214,-0.7041 v -3.71409 c 0,-0.53303 0.42911,-1.07723 0.96214,-1.22018 l 0.24075,-0.0646 c 0.53303,-0.14295 0.96215,0.17107 0.96215,0.7041 v 3.71409 c 0,0.53302 -0.42912,1.07722 -0.96215,1.22018 z"
         id="path31590"
         inkscape:connector-curvature="0" />
      <path
         style="display:inline;fill:#ff00ff;fill-opacity:1;stroke:#000000;stroke-width:0.09091211;stroke-linecap:round;stroke-linejoin:miter;stroke-miterlimit:4;stroke-dasharray:none;paint-order:fill markers stroke"
         d="m 172.70325,232.96268 -0.24076,0.0646 c -0.53302,0.14295 -0.96214,-0.17108 -0.96214,-0.70411 v -5.5324 c 0,-0.53303 0.42912,-1.07723 0.96214,-1.22018 l 0.24076,-0.0646 c 0.53303,-0.14296 0.96215,0.17107 0.96215,0.7041 v 5.5324 c 0,0.53303 -0.42912,1.07723 -0.96215,1.22019 z"
         id="path31592"
         inkscape:connector-curvature="0" />
      <path
         style="display:inline;fill:#00ff00;fill-opacity:1;stroke:#000000;stroke-width:0.09091211;stroke-linecap:round;stroke-linejoin:miter;stroke-miterlimit:4;stroke-dasharray:none;paint-order:fill markers stroke"
         d="m 177.64342,238.13229 -0.1787,0.0479 c -0.55022,0.14756 -0.99318,-0.1766 -0.99318,-0.72682 v -12.55958 c 0,-0.55021 0.44296,-1.11197 0.99318,-1.25954 l 0.1787,-0.0479 c 0.55022,-0.14757 0.99318,0.17659 0.99318,0.72681 v 12.55958 c 0,0.55022 -0.44296,1.11198 -0.99318,1.25954 z"
         id="path31594"
         inkscape:connector-curvature="0" />
      <path
         style="display:inline;fill:#ff0000;fill-opacity:1;stroke:#000000;stroke-width:0.09091211;stroke-linecap:round;stroke-linejoin:miter;stroke-miterlimit:4;stroke-dasharray:none;paint-order:fill markers stroke"
         d="m 177.64342,228.02969 -0.1787,0.0479 c -0.55022,0.14756 -0.99318,-0.1766 -0.99318,-0.72681 v -9.10493 c 0,-0.55021 0.44296,-1.11197 0.99318,-1.25954 l 0.1787,-0.0479 c 0.55022,-0.14757 0.99318,0.17659 0.99318,0.72681 v 9.10492 c 0,0.55022 -0.44296,1.11198 -0.99318,1.25954 z"
         id="path31596"
         inkscape:connector-curvature="0" />
      <path
         style="display:inline;fill:#ff00ff;fill-opacity:1;stroke:#000000;stroke-width:0.09091211;stroke-linecap:round;stroke-linejoin:miter;stroke-miterlimit:4;stroke-dasharray:none;paint-order:fill markers stroke"
         d="m 88.40115,258.19356 -0.17869,0.0479 c -0.55023,0.14756 -0.99319,-0.1766 -0.99319,-0.72682 v -12.10502 c 0,-0.55022 0.44296,-1.11197 0.99319,-1.25954 l 0.17869,-0.0479 c 0.55022,-0.14757 0.99318,0.17659 0.99318,0.72681 v 12.10502 c 0,0.55022 -0.44296,1.11198 -0.99318,1.25954 z"
         id="path31608"
         inkscape:connector-curvature="0" />
      <path
         style="display:inline;fill:#0000ff;fill-opacity:1;stroke:#000000;stroke-width:0.09091211;stroke-linecap:round;stroke-linejoin:miter;stroke-miterlimit:4;stroke-dasharray:none;paint-order:fill markers stroke"
         d="m 88.40115,248.04159 -0.17869,0.0479 c -0.55023,0.14757 -0.99319,-0.17658 -0.99319,-0.72681 v -8.9231 c 0,-0.55021 0.44296,-1.11197 0.99319,-1.25954 l 0.17869,-0.0479 c 0.55022,-0.14757 0.99318,0.17659 0.99318,0.72681 v 8.9231 c 0,0.55022 -0.44296,1.11197 -0.99318,1.25954 z"
         id="path31610"
         inkscape:connector-curvature="0" />
      <g
         transform="matrix(0.82937109,0.00392206,-0.00381318,0.80634419,-176.47991,-119.65179)"
         id="g9122"
         style="display:inline">
        <path
           inkscape:connector-curvature="0"
           d="m 355.40777,369.91026 2.64047,4.07502 6.29418,-1.70972 -2.64046,-4.07502 z"
           style="fill:#ffffff;fill-opacity:1;fill-rule:nonzero;stroke:#000000;stroke-width:0.10776404;stroke-linecap:round;stroke-linejoin:bevel;stroke-miterlimit:4;stroke-dasharray:none;stroke-opacity:1;paint-order:stroke fill markers"
           id="path9116" />
        <path
           inkscape:connector-curvature="0"
           d="m 358.04824,373.98528 v 2.63664 l 6.29418,-1.70972 v -2.63664 z"
           style="fill:#ffffff;fill-opacity:1;fill-rule:nonzero;stroke:#000000;stroke-width:0.10776404;stroke-linecap:round;stroke-linejoin:bevel;stroke-miterlimit:4;stroke-dasharray:none;stroke-opacity:1;paint-order:stroke fill markers"
           id="path9118" />
        <path
           inkscape:connector-curvature="0"
           d="m 355.40777,369.91026 2.64047,4.07502 v 2.63664 l -2.64047,-4.07502 z"
           style="fill:#ffffff;fill-opacity:1;fill-rule:nonzero;stroke:#000000;stroke-width:0.10776404;stroke-linecap:round;stroke-linejoin:bevel;stroke-miterlimit:4;stroke-dasharray:none;stroke-opacity:1;paint-order:stroke fill markers"
           id="path9120" />
      </g>
      <g
         id="g9130"
         transform="matrix(0.82937109,0.00392206,-0.00381318,0.80634419,-164.124,-121.33558)"
         style="display:inline">
        <path
           id="path9124"
           style="fill:#ffffff;fill-opacity:1;fill-rule:nonzero;stroke:#000000;stroke-width:0.10776404;stroke-linecap:round;stroke-linejoin:bevel;stroke-miterlimit:4;stroke-dasharray:none;stroke-opacity:1;paint-order:stroke fill markers"
           d="m 355.40777,369.91026 2.64047,4.07502 6.29418,-1.70972 -2.64046,-4.07502 z"
           inkscape:connector-curvature="0" />
        <path
           id="path9126"
           style="fill:#ffffff;fill-opacity:1;fill-rule:nonzero;stroke:#000000;stroke-width:0.10776404;stroke-linecap:round;stroke-linejoin:bevel;stroke-miterlimit:4;stroke-dasharray:none;stroke-opacity:1;paint-order:stroke fill markers"
           d="m 358.04824,373.98528 v 2.63664 l 6.29418,-1.70972 v -2.63664 z"
           inkscape:connector-curvature="0" />
        <path
           id="path9128"
           style="fill:#ffffff;fill-opacity:1;fill-rule:nonzero;stroke:#000000;stroke-width:0.10776404;stroke-linecap:round;stroke-linejoin:bevel;stroke-miterlimit:4;stroke-dasharray:none;stroke-opacity:1;paint-order:stroke fill markers"
           d="m 355.40777,369.91026 2.64047,4.07502 v 2.63664 l -2.64047,-4.07502 z"
           inkscape:connector-curvature="0" />
      </g>
      <g
         transform="matrix(0.82937109,0.00392206,-0.00381318,0.80634419,-153.61489,-125.79506)"
         id="g9138"
         style="display:inline">
        <path
           inkscape:connector-curvature="0"
           d="m 355.40777,369.91026 2.64047,4.07502 6.29418,-1.70972 -2.64046,-4.07502 z"
           style="fill:#ffffff;fill-opacity:1;fill-rule:nonzero;stroke:#000000;stroke-width:0.10776404;stroke-linecap:round;stroke-linejoin:bevel;stroke-miterlimit:4;stroke-dasharray:none;stroke-opacity:1;paint-order:stroke fill markers"
           id="path9132" />
        <path
           inkscape:connector-curvature="0"
           d="m 358.04824,373.98528 v 2.63664 l 6.29418,-1.70972 v -2.63664 z"
           style="fill:#ffffff;fill-opacity:1;fill-rule:nonzero;stroke:#000000;stroke-width:0.10776404;stroke-linecap:round;stroke-linejoin:bevel;stroke-miterlimit:4;stroke-dasharray:none;stroke-opacity:1;paint-order:stroke fill markers"
           id="path9134" />
        <path
           inkscape:connector-curvature="0"
           d="m 355.40777,369.91026 2.64047,4.07502 v 2.63664 l -2.64047,-4.07502 z"
           style="fill:#ffffff;fill-opacity:1;fill-rule:nonzero;stroke:#000000;stroke-width:0.10776404;stroke-linecap:round;stroke-linejoin:bevel;stroke-miterlimit:4;stroke-dasharray:none;stroke-opacity:1;paint-order:stroke fill markers"
           id="path9136" />
      </g>
      <g
         id="g9146"
         transform="matrix(0.82937109,0.00392206,-0.00381318,0.80634419,-139.13062,-124.25279)"
         style="display:inline">
        <path
           id="path9140"
           style="fill:#ffffff;fill-opacity:1;fill-rule:nonzero;stroke:#000000;stroke-width:0.10776404;stroke-linecap:round;stroke-linejoin:bevel;stroke-miterlimit:4;stroke-dasharray:none;stroke-opacity:1;paint-order:stroke fill markers"
           d="m 355.40777,369.91026 2.64047,4.07502 6.29418,-1.70972 -2.64046,-4.07502 z"
           inkscape:connector-curvature="0" />
        <path
           id="path9142"
           style="fill:#ffffff;fill-opacity:1;fill-rule:nonzero;stroke:#000000;stroke-width:0.10776404;stroke-linecap:round;stroke-linejoin:bevel;stroke-miterlimit:4;stroke-dasharray:none;stroke-opacity:1;paint-order:stroke fill markers"
           d="m 358.04824,373.98528 v 2.63664 l 6.29418,-1.70972 v -2.63664 z"
           inkscape:connector-curvature="0" />
        <path
           id="path9144"
           style="fill:#ffffff;fill-opacity:1;fill-rule:nonzero;stroke:#000000;stroke-width:0.10776404;stroke-linecap:round;stroke-linejoin:bevel;stroke-miterlimit:4;stroke-dasharray:none;stroke-opacity:1;paint-order:stroke fill markers"
           d="m 355.40777,369.91026 2.64047,4.07502 v 2.63664 l -2.64047,-4.07502 z"
           inkscape:connector-curvature="0" />
      </g>
      <path
         id="path28287"
         style="opacity:1;fill:#ff776f;fill-opacity:1;fill-rule:nonzero;stroke:#000000;stroke-width:0.1;stroke-linecap:round;stroke-linejoin:round;stroke-miterlimit:4;stroke-dasharray:none;stroke-opacity:1;paint-order:stroke fill markers"
         d="m 100.37716,227.84851 c 0,0 -19.85484,-30.22627 -19.85484,-30.22627 0,0 0,-19.63007 0,-19.63007 0,0 6.85904,10.44194 6.85904,10.44194 0,0 0,14.17412 0,14.17412 0,0 6.14301,9.3519 6.14301,9.3519 0,0 0,-14.17412 0,-14.17412 0,0 6.85279,10.43243 6.85279,10.43243 0,0 0,19.63007 0,19.63007"
         inkscape:connector-curvature="0" />
    </g>
  </g>
</svg>
